<?xml version="1.0" standalone="no"?>
<!DOCTYPE svg PUBLIC "-//W3C//DTD SVG 20010904//EN"
 "http://www.w3.org/TR/2001/REC-SVG-20010904/DTD/svg10.dtd">
<svg version="1.0" xmlns="http://www.w3.org/2000/svg"
 width="468.000000pt" height="468.000000pt" viewBox="0 0 468.000000 468.000000"
 preserveAspectRatio="xMidYMid meet">
<metadata>
Created by potrace 1.11, written by Peter Selinger 2001-2013
</metadata>
<g transform="translate(0.000000,468.000000) scale(0.100000,-0.100000)"
fill="#000000" stroke="none">
<path d="M1619 4626 c-13 -6 -25 -18 -27 -27 -1 -8 61 -121 139 -250 207 -341
302 -498 335 -552 30 -50 56 -64 99 -53 58 15 51 33 -115 305 -86 141 -200
329 -254 419 -54 89 -103 162 -109 163 -7 0 -19 2 -28 4 -9 1 -27 -2 -40 -9z"/>
<path d="M2965 4628 c-16 -7 -357 -554 -498 -798 l-28 -49 20 -20 c28 -28 72
-27 98 2 11 12 46 65 77 117 31 52 140 232 241 400 102 167 185 307 185 310 0
31 -59 55 -95 38z"/>
<path d="M2220 3703 c-52 -30 -111 -64 -130 -75 -19 -11 -50 -29 -67 -40 l-33
-20 0 -192 0 -192 93 -53 c50 -30 125 -74 166 -98 l73 -44 162 92 c88 51 164
97 168 103 4 6 6 96 5 200 l-2 189 -163 93 c-90 52 -166 94 -170 94 -4 -1 -50
-26 -102 -57z"/>
<path d="M527 3671 c-22 -8 -107 -137 -107 -161 0 -9 10 -26 23 -37 12 -11
236 -163 497 -338 261 -176 503 -338 538 -362 84 -57 102 -56 150 10 70 94 78
125 40 151 -36 26 -63 19 -96 -21 l-30 -37 -35 27 c-20 15 -39 27 -43 27 -4 0
-16 7 -26 17 -10 9 -27 21 -38 27 -11 6 -97 64 -192 128 -95 64 -278 187 -406
273 l-233 156 21 33 c29 47 26 78 -9 99 -16 9 -31 17 -33 16 -1 0 -11 -4 -21
-8z"/>
<path d="M4067 3669 c-33 -19 -37 -50 -11 -94 l23 -41 -257 -172 c-141 -95
-360 -242 -487 -327 -229 -155 -230 -155 -245 -133 -39 59 -71 68 -111 32 -28
-25 -23 -51 22 -121 39 -60 64 -83 88 -83 10 0 160 100 894 594 164 110 239
166 243 182 4 16 -8 43 -45 98 -53 79 -72 89 -114 65z"/>
<path d="M2615 3095 c-34 -20 -158 -92 -205 -118 l-45 -25 0 -156 0 -156 48
-30 c27 -17 50 -30 52 -30 2 0 38 -20 79 -45 42 -25 82 -45 89 -45 11 0 36 14
152 79 52 30 109 63 115 68 2 2 5 73 5 157 l1 154 -76 45 c-41 25 -97 57 -125
72 -27 15 -54 31 -60 35 -5 4 -19 2 -30 -5z"/>
<path d="M1878 3024 l-126 -75 0 -154 0 -155 32 -19 c17 -10 47 -28 66 -39 19
-10 63 -36 97 -56 34 -20 67 -36 74 -36 10 0 94 44 161 85 9 5 37 21 62 34 36
19 46 30 47 50 3 85 -1 282 -5 290 -6 9 -28 23 -146 89 -25 13 -57 33 -72 43
-14 11 -34 19 -45 18 -10 0 -75 -34 -145 -75z"/>
<path d="M2280 2558 c-19 -11 -50 -29 -68 -40 -18 -10 -90 -51 -160 -92 -70
-40 -154 -88 -187 -106 -33 -18 -86 -50 -119 -69 l-59 -36 0 -365 0 -365 139
-83 c76 -45 145 -85 152 -89 8 -3 86 -48 175 -99 89 -52 166 -94 172 -94 11 0
40 17 355 199 107 63 213 124 235 136 l40 23 0 372 0 372 -45 25 c-25 14 -146
84 -270 156 -284 164 -307 177 -317 177 -4 0 -24 -10 -43 -22z"/>
<path d="M1520 2527 c-25 -13 -131 -71 -236 -130 -105 -59 -198 -107 -207
-107 -9 0 -31 13 -49 29 -41 35 -71 45 -97 31 -31 -16 -40 -41 -32 -85 13 -75
8 -80 -215 -205 -114 -63 -223 -127 -244 -143 -70 -50 -96 -154 -60 -235 23
-52 51 -68 91 -52 34 15 40 29 36 102 -1 40 2 62 13 72 8 8 105 65 215 126
229 129 262 151 280 193 12 28 16 30 71 32 54 2 71 9 189 77 72 41 153 88 180
103 28 15 68 38 90 50 70 39 78 39 125 0 49 -41 82 -44 115 -11 29 29 26 54
-10 102 -57 74 -167 96 -255 51z"/>
<path d="M2959 2524 c-44 -25 -89 -83 -89 -116 0 -25 39 -58 69 -58 15 0 36 8
47 18 32 30 68 50 84 47 8 -2 96 -49 195 -105 274 -155 291 -163 341 -156 37
5 43 3 48 -17 11 -46 58 -80 271 -197 256 -141 259 -143 244 -207 -10 -48 3
-86 35 -102 38 -18 68 -3 90 43 36 76 20 172 -37 225 -18 17 -125 83 -237 145
-113 63 -215 124 -228 135 -21 18 -22 26 -16 83 5 53 3 66 -10 77 -29 24 -72
17 -111 -17 -38 -34 -69 -40 -100 -18 -11 7 -42 26 -70 41 -27 15 -70 39 -95
53 -252 142 -274 152 -330 152 -40 0 -67 -7 -101 -26z"/>
<path d="M1534 1510 c-57 -35 -221 -222 -313 -359 -193 -285 -343 -689 -367
-989 -7 -87 3 -106 62 -116 33 -6 65 18 70 52 2 9 6 37 9 62 17 131 34 214 65
323 89 311 254 601 476 836 105 111 111 121 95 159 -18 42 -59 56 -97 32z"/>
<path d="M3063 1522 c-13 -2 -30 -13 -38 -25 -30 -42 -19 -67 71 -162 302
-319 495 -716 550 -1130 20 -156 33 -177 100 -155 53 18 57 40 39 185 -10 83
-53 258 -91 374 -98 295 -280 599 -494 824 -66 70 -105 95 -137 89z"/>
</g>
</svg>
