<svg id="logo" xmlns="http://www.w3.org/2000/svg" viewBox="0 0 467.72 467.72"><defs><style>.cls-1{fill:#fff;}.cls-2{fill:#464952;}</style></defs><title>Artboard 1 copy 4</title><polygon class="cls-1" points="229.04 203.73 229.04 172.79 202.25 157.31 175.45 172.79 175.45 203.73 202.25 219.2 229.04 203.73"/><polygon class="cls-1" points="265.75 149.3 265.75 110.86 232.46 91.64 199.17 110.86 199.17 149.3 232.46 168.52 265.75 149.3"/><polygon class="cls-1" points="168.97 246.15 168.97 319.45 232.46 356.11 295.94 319.45 295.94 246.15 232.46 209.5 168.97 246.15"/><path class="cls-2" d="M235.68,245.92a12.75,12.75,0,0,1,12.89,12.89,12.23,12.23,0,0,1-3.81,9.13l-8,7.87a3.1,3.1,0,0,0-1,2.34v9.67q0,3.23-3.22,3.22t-3.22-3.22v-9.67a9.46,9.46,0,0,1,3.07-7l8-7.81a6,6,0,0,0,1.81-4.5,6.34,6.34,0,0,0-6.45-6.44,41.78,41.78,0,0,0-6.54.53,54.78,54.78,0,0,0-8.35,2.45,3.75,3.75,0,0,1-1.22.24,3.34,3.34,0,0,1-3.22-3.22,3,3,0,0,1,2-2.93A42,42,0,0,1,235.68,245.92Zm-6.44,58q0-3.23,3.22-3.22t3.22,3.22v3.22q0,3.23-3.22,3.23t-3.22-3.23Z"/><path class="cls-1" d="M154.56,180.46l3.29-4.9q3.3-4.91,8.19-1.61t1.61,8.2l-6.59,9.79q-3.28,4.91-8.19,1.61L45.09,121.09q-4.91-3.3-1.61-8.19l6.59-9.8q3.28-4.91,8.19-1.61t1.61,8.19l-3.3,4.9Z"/><path class="cls-1" d="M408.34,114.16l-3.29-4.9q-3.3-4.91,1.6-8.19t8.2,1.6l6.58,9.8q3.3,4.91-1.6,8.19L312.05,193.12q-4.91,3.3-8.2-1.6l-6.58-9.8q-3.3-4.91,1.6-8.19t8.19,1.6l3.3,4.9Z"/><path class="cls-1" d="M53.21,285.83q-4.51,2.54-2.57,9.13t-2.56,9.13q-5.85,3.27-9.13-2.57a19.94,19.94,0,0,1,7.7-27.38l40.93-22.95q4.52-2.53,2.57-9.13t2.57-9.13q4.52-2.53,9.12,2.57t9.13,2.57l40.93-22.95a20,20,0,0,1,27.38,7.7q3.27,5.85-2.57,9.13-4.52,2.52-9.13-2.57t-9.12-2.57l-40.93,22.95q-9.66,5.42-15,.71.69,3.1-2.48,7.22a20.67,20.67,0,0,1-5.94,5.19Z"/><path class="cls-1" d="M373.58,262.88a20.67,20.67,0,0,1-5.94-5.19q-3.17-4.11-2.48-7.22-5.31,4.71-15-.71l-40.93-22.95q-4.51-2.53-9.13,2.57T291,232q-5.85-3.28-2.57-9.13a20,20,0,0,1,27.38-7.7l40.93,22.95q4.51,2.53,9.12-2.57t9.13-2.57q4.51,2.53,2.57,9.13t2.56,9.13l40.93,22.95a20,20,0,0,1,7.71,27.38q-3.28,5.85-9.13,2.57-4.51-2.54-2.57-9.13t-2.57-9.13Z"/><path class="cls-1" d="M104.24,424.81q-3.17,11.91-5.53,32.07a7.54,7.54,0,0,1-.61,2.44q-3,6.09-9.14,3.09-3.87-1.87-3.77-5.37.19-13.34,5.72-34.82a223.53,223.53,0,0,1,38.56-79.53q13.46-17.62,23.81-26.05c1.78-1.49,4-1.61,6.55-.36a6.71,6.71,0,0,1,3.46,3.9,6.46,6.46,0,0,1-.23,5.19,7.54,7.54,0,0,1-1.54,2q-14.36,14.34-21.76,24.2a209.07,209.07,0,0,0-35.52,73.25Z"/><path class="cls-1" d="M346.29,386.44a208.3,208.3,0,0,0-21.36-34.88q-7.4-9.85-21.76-24.2a7.48,7.48,0,0,1-1.53-2,6.42,6.42,0,0,1-.24-5.19,6.71,6.71,0,0,1,3.46-3.9c2.59-1.25,4.77-1.13,6.56.36q10.35,8.42,23.8,26.05a223.53,223.53,0,0,1,38.56,79.53q5.52,21.48,5.73,34.82.09,3.49-3.78,5.37-6.18,3-9.14-3.09a7.81,7.81,0,0,1-.61-2.44q-2.37-20.16-5.52-32.07A209,209,0,0,0,346.29,386.44Z"/><path class="cls-1" d="M214.15,93.64q-4,0-5.55-2.64L159.79,10.61a3.71,3.71,0,0,1-.56-1.89c0-2.94,2.07-4.4,6.2-4.4q3.87,0,5.45,2.64L219.7,87.34a3.58,3.58,0,0,1-1.25,5A7.2,7.2,0,0,1,214.15,93.64Z"/><path class="cls-1" d="M244.66,89.17a3.41,3.41,0,0,1,.56-1.83L294,7q1.58-2.64,5.46-2.64a7.45,7.45,0,0,1,4.34,1.28,3.73,3.73,0,0,1,1.85,3.12,3.7,3.7,0,0,1-.55,1.89L256.31,91c-1.05,1.76-2.86,2.64-5.45,2.64a7.28,7.28,0,0,1-4.35-1.32A3.82,3.82,0,0,1,244.66,89.17Z"/><polygon class="cls-1" points="290.28 203.73 290.28 172.79 263.48 157.31 236.68 172.79 236.68 203.73 263.48 219.2 290.28 203.73"/></svg>