<?xml version="1.0" encoding="utf-8"?>
<!-- Generator: Adobe Illustrator 24.1.2, SVG Export Plug-In . SVG Version: 6.00 Build 0)  -->
<svg version="1.1" id="logo" xmlns="http://www.w3.org/2000/svg" xmlns:xlink="http://www.w3.org/1999/xlink" x="0px" y="0px"
	 viewBox="0 0 494 494" style="enable-background:new 0 0 494 494;" xml:space="preserve">
<style type="text/css">
	.st0{fill:#FFFFFF;}
	.st1{fill:#464952;stroke:#464952;stroke-width:5;stroke-miterlimit:10;}
</style>
<polygon class="st0" points="242.2,216.9 242.2,185.9 215.4,170.5 188.6,185.9 188.6,216.9 215.4,232.4 "/>
<polygon class="st0" points="278.9,162.4 278.9,124 245.6,104.8 212.3,124 212.3,162.4 245.6,181.7 "/>
<polygon class="st0" points="182.1,259.3 182.1,332.6 245.6,369.3 309.1,332.6 309.1,259.3 245.6,222.6 "/>
<path class="st1" d="M250.1,250.8c9.9-0.1,17.9,7.8,18,17.7c0,0.1,0,0.2,0,0.3c0.1,4.8-1.8,9.5-5.3,12.8l-11.3,11
	c-0.9,0.8-1.5,2-1.4,3.3v13.5c0,3-1.5,4.5-4.5,4.5s-4.5-1.5-4.5-4.5V296c0-3.7,1.5-7.3,4.3-9.8l11.2-10.9c1.7-1.7,2.6-3.9,2.5-6.3
	c0.1-4.9-3.8-8.9-8.7-9c-0.1,0-0.2,0-0.3,0c-3.1,0-6.1,0.3-9.2,0.8c-4,0.8-7.9,1.9-11.7,3.3c-0.5,0.2-1.1,0.3-1.7,0.3
	c-2.5-0.1-4.4-2.1-4.5-4.5c-0.1-1.8,1-3.5,2.7-4.1C233.5,252.4,241.8,250.7,250.1,250.8z M241.1,332c0-3,1.5-4.5,4.5-4.5
	c3,0,4.5,1.5,4.5,4.5v4.5c0,3-1.5,4.5-4.5,4.5c-3,0-4.5-1.5-4.5-4.5V332z"/>
<path class="st0" d="M173.6,195.6l2.4-5.4c1.6-3.6,4.2-4.6,7.8-3c3.6,1.6,4.6,4.2,3,7.8l-4.8,10.8c-1.6,3.6-4.2,4.6-7.8,3
	L55.5,156.1c-3.6-1.6-4.6-4.2-3-7.8l4.8-10.8c1.6-3.6,4.2-4.6,7.8-3c3.6,1.6,4.6,4.2,3,7.8l-2.4,5.4L173.6,195.6z"/>
<path class="st0" d="M405.8,109l-4.1-4.2c-2.7-2.8-2.7-5.6,0.2-8.3c2.8-2.7,5.6-2.7,8.4,0.2l8.2,8.5c2.7,2.8,2.7,5.6-0.1,8.3
	l-93.6,90.1c-2.8,2.7-5.6,2.7-8.3-0.2l-8.2-8.5c-2.7-2.8-2.7-5.6,0.2-8.3c2.8-2.7,5.6-2.7,8.3,0.2l4.1,4.2L405.8,109z"/>
<path class="st0" d="M73,320.7c-2.7,2.2-3,5.4-1,9.4s1.7,7.2-1,9.4c-3.5,2.8-6.6,2.5-9.4-0.9c-7-8.5-5.9-21,2.5-28.1
	c0.1-0.1,0.2-0.2,0.3-0.2l36.3-29.7c2.7-2.2,3-5.3,1-9.4c-2-4.1-1.7-7.2,0.9-9.4c2.7-2.2,5.8-1.9,9.4,0.9c3.6,2.8,6.8,3.1,9.4,0.9
	l36.3-29.7c4.1-3.5,9.4-5.1,14.8-4.5c5.3,0.5,10.2,3.1,13.5,7.3c2.8,3.5,2.5,6.6-0.9,9.4c-2.7,2.2-5.8,1.9-9.4-0.9s-6.8-3.1-9.4-0.9
	L130.1,274c-5.7,4.7-10.6,5.8-14.6,3.3c0.8,2,0.4,4.5-1.2,7.5c-1.3,2.4-3,4.4-5,6.1L73,320.7z"/>
<path class="st0" d="M394.2,260.3c-2.5-0.9-4.8-2.3-6.8-4.1c-2.5-2.3-3.8-4.6-3.7-6.7c-3,3.7-7.9,4.3-14.9,1.9l-44.3-15.5
	c-3.3-1.1-6.1,0.2-8.5,4.1c-2.4,3.9-5.3,5.3-8.5,4.1c-4.2-1.5-5.6-4.3-4.1-8.5c3.6-10.4,15-16,25.4-12.4c0.1,0,0.1,0.1,0.2,0.1
	l44.3,15.5c3.3,1.1,6.1-0.2,8.5-4.1c2.4-3.9,5.3-5.3,8.5-4.1c3.3,1.1,4.6,4,4.1,8.5c-0.5,4.6,0.9,7.4,4.1,8.5l44.3,15.5
	c10.4,3.6,16,14.9,12.4,25.3c0,0.1-0.1,0.2-0.1,0.3c-1.5,4.2-4.3,5.6-8.5,4.1c-3.3-1.1-4.6-4-4.1-8.5c0.5-4.6-0.9-7.4-4.1-8.5
	L394.2,260.3z"/>
<path class="st0" d="M137.3,446.6c-0.7,8.2-0.6,19,0.1,32.5c0.1,0.8,0,1.7-0.2,2.5c-1.2,4.3-4,5.9-8.4,4.6c-2.8-0.8-4.3-2.3-4.7-4.6
	c-1.4-8.8-1.6-20.5-0.4-35.3c2.3-29.7,10.5-58.6,24.2-85c6.8-13.1,13.1-23.1,18.9-29.8c1.5-1.8,3.6-2.3,6.4-1.5
	c1.7,0.5,3.2,1.6,4.1,3.2c0.9,1.5,1.2,3.4,0.7,5.1c-0.3,0.8-0.7,1.6-1.2,2.2c-7.8,11.1-13.5,20.3-17.2,27.6
	C147.1,392.7,139.5,419.3,137.3,446.6L137.3,446.6z"/>
<path class="st0" d="M371.1,390.6c-8-11.1-17.1-21.3-27.1-30.6c-6-5.6-14.5-12.3-25.6-20.1c-0.7-0.5-1.3-1-1.9-1.7
	c-1.1-1.5-1.5-3.3-1.1-5.1c0.3-1.8,1.3-3.4,2.7-4.5c2.3-1.7,4.5-1.9,6.5-0.8c7.8,4.3,17.1,11.5,28,21.5
	c21.8,20.2,39.5,44.5,51.8,71.6c6.1,13.5,10,24.6,11.7,33.3c0.5,2.3-0.5,4.2-2.8,5.9c-3.7,2.7-6.9,2.2-9.5-1.5
	c-0.5-0.7-0.8-1.5-1-2.3c-3.9-13-7.6-23.2-11-30.6C386,413.5,379.1,401.7,371.1,390.6z"/>
<path class="st0" d="M227.3,106.8c-2.7,0-4.5-0.9-5.6-2.6l-48.8-80.4c-0.4-0.6-0.5-1.2-0.6-1.9c0-2.9,2.1-4.4,6.2-4.4
	c2.6,0,4.4,0.9,5.4,2.6l48.8,80.4c1,1.7,0.5,3.9-1.1,4.9c0,0-0.1,0-0.1,0.1C230.3,106.4,228.8,106.8,227.3,106.8z"/>
<path class="st0" d="M257.8,102.3c0-0.7,0.2-1.3,0.6-1.8l48.8-80.4c1-1.8,2.9-2.6,5.5-2.6c1.6,0,3.1,0.4,4.4,1.3
	c1.7,0.9,2.3,3.1,1.4,4.8c0,0.1-0.1,0.2-0.1,0.2l-48.8,80.4c-1,1.8-2.9,2.6-5.5,2.6c-1.6,0-3.1-0.4-4.4-1.3
	C258.6,104.8,257.9,103.6,257.8,102.3z"/>
<polygon class="st0" points="303.4,216.9 303.4,185.9 276.6,170.5 249.8,185.9 249.8,216.9 276.6,232.4 "/>
</svg>
