<svg id="logo" xmlns="http://www.w3.org/2000/svg" viewBox="0 0 494.02 494.02"><defs><style>.cls-1{fill:#fff;}.cls-2{fill:#464952;stroke:#464952;stroke-miterlimit:10;stroke-width:5px;}</style></defs><polygon class="cls-1" points="242.57 216.88 242.57 185.94 215.77 170.47 188.97 185.94 188.97 216.88 215.77 232.35 242.57 216.88"/><polygon class="cls-1" points="279.27 162.45 279.27 124.01 245.98 104.79 212.69 124.01 212.69 162.45 245.98 181.67 279.27 162.45"/><polygon class="cls-1" points="182.5 259.3 182.5 332.61 245.98 369.26 309.46 332.61 309.46 259.3 245.98 222.65 182.5 259.3"/><path class="cls-2" d="M250.49,250.83a17.86,17.86,0,0,1,18.05,18,17.15,17.15,0,0,1-5.33,12.78l-11.28,11a4.37,4.37,0,0,0-1.44,3.28v13.54c0,3-1.5,4.51-4.51,4.51s-4.51-1.51-4.51-4.51V296a13.22,13.22,0,0,1,4.31-9.84L257,275.17a8.42,8.42,0,0,0,2.53-6.29,8.88,8.88,0,0,0-9-9,57.43,57.43,0,0,0-9.16.75A75.11,75.11,0,0,0,229.64,264a5.12,5.12,0,0,1-1.71.34,4.69,4.69,0,0,1-4.51-4.51,4.2,4.2,0,0,1,2.74-4.1A58.94,58.94,0,0,1,250.49,250.83Zm-9,81.22q0-4.51,4.51-4.52t4.51,4.52v4.51q0,4.51-4.51,4.51t-4.51-4.51Z"/><path class="cls-1" d="M416.5,108.72l-4.1-4.25q-4.09-4.26.16-8.35t8.35.16l8.19,8.5q4.09,4.26-.16,8.35l-93.56,90.08q-4.26,4.08-8.35-.16l-8.19-8.51q-4.09-4.24.16-8.35t8.35.16l4.09,4.26Z"/><path class="cls-1" d="M167.85,195.91l2.4-5.4q2.38-5.4,7.79-3t3,7.78l-4.78,10.8q-2.4,5.4-7.79,3L49.74,156.45q-5.4-2.4-3-7.79l4.79-10.79q2.38-5.4,7.79-3t3,7.79l-2.39,5.4Z"/><path class="cls-1" d="M385.74,261A20.67,20.67,0,0,1,379,256.9q-3.83-3.49-3.69-6.67-4.41,5.55-14.87,1.9l-44.29-15.5q-4.89-1.71-8.54,4.11t-8.54,4.12q-6.33-2.22-4.12-8.55A20,20,0,0,1,320.57,224l44.29,15.5q4.89,1.71,8.54-4.11t8.54-4.12q4.89,1.71,4.12,8.55t4.11,8.54l44.29,15.5a19.94,19.94,0,0,1,12.34,25.62q-2.21,6.33-8.54,4.11-4.89-1.71-4.11-8.54T430,276.48Z"/><path class="cls-1" d="M80.67,320q-4,3.27-1,9.43t-.94,9.43q-5.19,4.25-9.44-.94a19.95,19.95,0,0,1,2.84-28.3l36.32-29.71q4-3.28.94-9.44t1-9.43q4-3.28,9.43.94t9.43.95l36.32-29.71A20,20,0,0,1,193.88,236q4.23,5.19-.95,9.43-4,3.28-9.43-.94t-9.44-.95l-36.32,29.72q-8.56,7-14.62,3.3c.82,1.95.42,4.47-1.19,7.53a20.86,20.86,0,0,1-4.94,6.14Z"/><path class="cls-1" d="M373.74,390.64A209,209,0,0,0,346.65,360q-9-8.43-25.64-20.06a7.39,7.39,0,0,1-1.85-1.69,6.45,6.45,0,0,1-1.14-5.06,6.67,6.67,0,0,1,2.74-4.45c2.32-1.68,4.5-1.94,6.51-.79q11.67,6.51,28,21.53A223.69,223.69,0,0,1,407,421.1q9.17,20.2,11.68,33.31.71,3.4-2.79,5.94-5.57,4-9.53-1.46a7.75,7.75,0,0,1-1-2.3q-5.83-19.44-11-30.62A209,209,0,0,0,373.74,390.64Z"/><path class="cls-1" d="M139.94,446.63q-1,12.27.13,32.54a7.93,7.93,0,0,1-.18,2.51q-1.86,6.51-8.46,4.63c-2.76-.78-4.31-2.33-4.65-4.63q-2.13-13.17-.42-35.29a223.95,223.95,0,0,1,24.17-85q10.18-19.71,18.92-29.8c1.5-1.77,3.63-2.27,6.39-1.48a6.64,6.64,0,0,1,4.09,3.24,6.43,6.43,0,0,1,.67,5.14,7.66,7.66,0,0,1-1.17,2.23q-11.66,16.62-17.23,27.61a209,209,0,0,0-22.26,78.31Z"/><path class="cls-1" d="M227.67,106.79q-4,0-5.54-2.64L173.31,23.76a3.71,3.71,0,0,1-.56-1.89q0-4.39,6.2-4.4,3.88,0,5.45,2.64l48.82,80.38a3.77,3.77,0,0,1,.56,1.9A3.72,3.72,0,0,1,232,105.5,7.18,7.18,0,0,1,227.67,106.79Z"/><path class="cls-1" d="M258.18,102.32a3.41,3.41,0,0,1,.56-1.83l48.82-80.38q1.56-2.64,5.45-2.64a7.42,7.42,0,0,1,4.35,1.29,3.52,3.52,0,0,1,1.29,5l-48.82,80.39q-1.56,2.64-5.45,2.64a7.32,7.32,0,0,1-4.35-1.32A3.82,3.82,0,0,1,258.18,102.32Z"/><polygon class="cls-1" points="303.8 216.88 303.8 185.94 277 170.47 250.2 185.94 250.2 216.88 277 232.35 303.8 216.88"/></svg>