<?xml version="1.0" encoding="utf-8"?>
<!-- Generator: Adobe Illustrator 24.1.2, SVG Export Plug-In . SVG Version: 6.00 Build 0)  -->
<svg version="1.1" id="logo" xmlns="http://www.w3.org/2000/svg" xmlns:xlink="http://www.w3.org/1999/xlink" x="0px" y="0px"
	 viewBox="0 0 494 494" style="enable-background:new 0 0 494 494;" xml:space="preserve">
<style type="text/css">
	.st0{fill:#FFFFFF;}
	.st1{fill:#464952;stroke:#464952;stroke-width:5;stroke-miterlimit:10;}
</style>
<polygon class="st0" points="242.6,216.9 242.6,185.9 215.8,170.5 189,185.9 189,216.9 215.8,232.4 "/>
<polygon class="st0" points="279.3,162.4 279.3,124 246,104.8 212.7,124 212.7,162.4 246,181.7 "/>
<polygon class="st0" points="182.5,259.3 182.5,332.6 246,369.3 309.5,332.6 309.5,259.3 246,222.6 "/>
<path class="st1" d="M250.5,250.8c9.9-0.1,17.9,7.8,18,17.7c0,0.1,0,0.2,0,0.3c0.1,4.8-1.8,9.5-5.3,12.8l-11.3,11
	c-0.9,0.8-1.5,2-1.4,3.3v13.5c0,3-1.5,4.5-4.5,4.5s-4.5-1.5-4.5-4.5V296c0-3.7,1.5-7.3,4.3-9.8l11.2-11c1.7-1.6,2.6-3.9,2.5-6.3
	c0.1-4.9-3.9-8.9-8.8-9c-0.1,0-0.2,0-0.2,0c-3.1,0-6.1,0.3-9.2,0.8c-4,0.8-7.9,1.9-11.7,3.4c-0.5,0.2-1.1,0.3-1.7,0.3
	c-2.5-0.1-4.4-2.1-4.5-4.5c-0.1-1.8,1-3.5,2.7-4.1C233.8,252.4,242.1,250.7,250.5,250.8z M241.5,332c0-3,1.5-4.5,4.5-4.5
	s4.5,1.5,4.5,4.5v4.5c0,3-1.5,4.5-4.5,4.5s-4.5-1.5-4.5-4.5V332z"/>
<path class="st0" d="M162.6,190.6l4.1-4.3c2.7-2.8,5.5-2.9,8.4-0.2c2.8,2.7,2.9,5.5,0.2,8.4l-8.2,8.5c-2.7,2.8-5.5,2.9-8.4,0.2
	l-93.6-90.1c-2.8-2.7-2.9-5.5-0.2-8.3l8.2-8.5c2.7-2.8,5.5-2.9,8.3-0.2c2.8,2.7,2.9,5.5,0.2,8.3l-4.1,4.2L162.6,190.6z"/>
<path class="st0" d="M434.1,148.1l-2.4-5.4c-1.6-3.6-0.6-6.2,3-7.8c3.6-1.6,6.2-0.6,7.8,3l4.8,10.8c1.6,3.6,0.6,6.2-3,7.8
	l-118.7,52.6c-3.6,1.6-6.2,0.6-7.8-3l-4.8-10.8c-1.6-3.6-0.6-6.2,3-7.8s6.2-0.6,7.8,3l2.4,5.4L434.1,148.1z"/>
<path class="st0" d="M64,276.5c-3.3,1.1-4.6,4-4.1,8.5s-0.9,7.4-4.1,8.5c-4.2,1.5-7.1,0.1-8.5-4.1c-3.7-10.4,1.7-21.8,12-25.5
	c0.1,0,0.2-0.1,0.3-0.1l44.3-15.5c3.3-1.1,4.6-4,4.1-8.5c-0.5-4.6,0.9-7.4,4.1-8.6c3.3-1.1,6.1,0.2,8.5,4.1s5.3,5.3,8.5,4.1
	l44.3-15.5c10.4-3.7,21.8,1.7,25.6,12.1c0,0.1,0.1,0.1,0.1,0.2c1.5,4.2,0.1,7.1-4.1,8.6c-3.3,1.1-6.1-0.2-8.5-4.1
	c-2.4-3.9-5.3-5.3-8.5-4.1l-44.3,15.5c-7,2.4-11.9,1.8-14.9-1.9c0.1,2.1-1.1,4.3-3.7,6.7c-2,1.8-4.3,3.2-6.8,4.1L64,276.5z"/>
<path class="st0" d="M377,290.2c-2-1.7-3.7-3.8-4.9-6.1c-1.6-3.1-2-5.6-1.2-7.5c-4,2.5-8.9,1.4-14.6-3.3L320,243.6
	c-2.7-2.2-5.8-1.9-9.4,0.9c-3.6,2.8-6.8,3.1-9.4,0.9c-3.5-2.8-3.8-6-1-9.4c6.9-8.6,19.5-9.9,28.1-3c0.1,0,0.1,0.1,0.2,0.1l36.3,29.7
	c2.7,2.2,5.8,1.9,9.4-1c3.6-2.8,6.8-3.1,9.4-0.9c2.7,2.2,3,5.3,1,9.4c-2,4.1-1.7,7.2,0.9,9.4l36.3,29.7c8.6,6.9,9.9,19.5,3,28
	c-0.1,0.1-0.1,0.2-0.2,0.3c-2.8,3.5-6,3.8-9.4,0.9c-2.7-2.2-3-5.3-0.9-9.4c2-4.1,1.7-7.2-1-9.4L377,290.2z"/>
<path class="st0" d="M99.7,426c-3.4,7.4-7.1,17.7-11,30.6c-0.2,0.8-0.5,1.6-1,2.3c-2.7,3.7-5.8,4.1-9.5,1.5
	c-2.3-1.7-3.3-3.7-2.8-5.9c1.7-8.8,5.5-19.9,11.7-33.3c12.3-27.1,29.9-51.4,51.8-71.6c10.9-10,20.2-17.2,28-21.5
	c2-1.1,4.2-0.9,6.5,0.8c1.5,1,2.5,2.7,2.7,4.5c0.3,1.8-0.1,3.6-1.1,5.1c-0.5,0.7-1.1,1.2-1.9,1.7c-11.1,7.8-19.7,14.4-25.7,20.1
	C127.3,378.7,111.1,401.1,99.7,426z"/>
<path class="st0" d="M346.8,406.4c-3.7-13.1-8.8-25.9-15-38.1c-3.7-7.3-9.5-16.5-17.2-27.6c-0.5-0.7-0.9-1.4-1.2-2.2
	c-0.5-1.7-0.3-3.6,0.7-5.1c0.9-1.6,2.3-2.8,4.1-3.2c2.8-0.8,4.9-0.3,6.4,1.5c5.8,6.7,12.1,16.7,18.9,29.8
	c13.6,26.4,21.8,55.3,24.2,85c1.1,14.7,1,26.5-0.4,35.3c-0.3,2.3-1.9,3.9-4.6,4.6c-4.4,1.3-7.2-0.3-8.5-4.6
	c-0.2-0.8-0.3-1.7-0.2-2.5c0.8-13.5,0.8-24.4,0.1-32.5C353,433,350.5,419.5,346.8,406.4z"/>
<path class="st0" d="M227.7,106.8c-2.7,0-4.5-0.9-5.5-2.6l-48.8-80.4c-0.4-0.6-0.5-1.2-0.6-1.9c0-2.9,2.1-4.4,6.2-4.4
	c2.6,0,4.4,0.9,5.4,2.6l48.8,80.4c0.4,0.6,0.5,1.2,0.6,1.9c0,1.3-0.7,2.4-1.8,3.1C230.7,106.4,229.2,106.8,227.7,106.8z"/>
<path class="st0" d="M258.2,102.3c0-0.7,0.2-1.3,0.6-1.8l48.8-80.4c1-1.8,2.9-2.6,5.5-2.6c1.5,0,3.1,0.4,4.4,1.3
	c1.7,0.9,2.3,3.1,1.4,4.8c0,0.1-0.1,0.2-0.1,0.2l-48.8,80.4c-1,1.8-2.9,2.6-5.5,2.6c-1.6,0-3.1-0.4-4.4-1.3
	C258.9,104.8,258.2,103.6,258.2,102.3z"/>
<polygon class="st0" points="303.8,216.9 303.8,185.9 277,170.5 250.2,185.9 250.2,216.9 277,232.4 "/>
</svg>
