<svg id="logo" xmlns="http://www.w3.org/2000/svg" viewBox="0 0 494.02 494.02"><defs><style>.cls-1{fill:#fff;}.cls-2{fill:#464952;stroke:#464952;stroke-miterlimit:10;stroke-width:5px;}</style></defs><polygon class="cls-1" points="242.57 216.88 242.57 185.94 215.77 170.47 188.97 185.94 188.97 216.88 215.77 232.35 242.57 216.88"/><polygon class="cls-1" points="279.27 162.45 279.27 124.01 245.98 104.79 212.69 124.01 212.69 162.45 245.98 181.67 279.27 162.45"/><polygon class="cls-1" points="182.5 259.3 182.5 332.61 245.98 369.26 309.46 332.61 309.46 259.3 245.98 222.65 182.5 259.3"/><path class="cls-2" d="M250.49,250.83a17.86,17.86,0,0,1,18.05,18,17.15,17.15,0,0,1-5.33,12.78l-11.28,11a4.37,4.37,0,0,0-1.44,3.28v13.54c0,3-1.5,4.51-4.51,4.51s-4.51-1.51-4.51-4.51V296a13.22,13.22,0,0,1,4.31-9.84L257,275.17a8.42,8.42,0,0,0,2.53-6.29,8.88,8.88,0,0,0-9-9,57.43,57.43,0,0,0-9.16.75A75.11,75.11,0,0,0,229.64,264a5.12,5.12,0,0,1-1.71.34,4.69,4.69,0,0,1-4.51-4.51,4.2,4.2,0,0,1,2.74-4.1A58.94,58.94,0,0,1,250.49,250.83Zm-9,81.22q0-4.51,4.51-4.52t4.51,4.52v4.51q0,4.51-4.51,4.51t-4.51-4.51Z"/><path class="cls-1" d="M162.58,190.61l4.09-4.26q4.1-4.24,8.35-.16t.16,8.35L167,203.05q-4.1,4.24-8.35.16L65.08,113.13q-4.24-4.09-.16-8.35l8.19-8.5q4.1-4.26,8.35-.16t.16,8.35l-4.1,4.25Z"/><path class="cls-1" d="M434.1,148.05l-2.39-5.4q-2.4-5.4,3-7.79t7.79,3l4.79,10.79q2.38,5.4-3,7.79L325.55,209.09q-5.39,2.4-7.79-3L313,195.29c-1.6-3.59-.59-6.19,3-7.78s6.2-.6,7.79,3l2.4,5.4Z"/><path class="cls-1" d="M64,276.48q-4.89,1.71-4.11,8.54t-4.11,8.54q-6.33,2.22-8.54-4.11a19.94,19.94,0,0,1,12.34-25.62l44.29-15.5q4.89-1.71,4.11-8.54t4.12-8.55q4.89-1.71,8.54,4.12t8.54,4.11L173.45,224a20,20,0,0,1,25.63,12.34q2.21,6.33-4.12,8.55-4.89,1.71-8.54-4.12t-8.54-4.11l-44.29,15.5q-10.45,3.65-14.87-1.9.14,3.18-3.69,6.67a20.67,20.67,0,0,1-6.75,4.08Z"/><path class="cls-1" d="M377,290.25a20.86,20.86,0,0,1-4.94-6.14c-1.61-3.06-2-5.58-1.19-7.53q-6.06,3.71-14.62-3.3L320,243.56q-4-3.27-9.44.95t-9.43.94q-5.19-4.24-.95-9.43a20,20,0,0,1,28.31-2.83l36.32,29.71q4,3.27,9.43-.95t9.43-.94q4,3.28.95,9.43t.94,9.44l36.32,29.71a19.95,19.95,0,0,1,2.84,28.3q-4.24,5.19-9.44.94-4-3.27-.94-9.43t-.95-9.43Z"/><path class="cls-1" d="M99.67,426q-5.17,11.17-11,30.62a7.75,7.75,0,0,1-1,2.3q-4,5.48-9.53,1.46-3.5-2.53-2.79-5.94Q77.83,441.3,87,421.1a223.69,223.69,0,0,1,51.79-71.62q16.31-15,28-21.53c2-1.15,4.19-.89,6.51.79a6.67,6.67,0,0,1,2.74,4.45,6.41,6.41,0,0,1-1.14,5.06,7.39,7.39,0,0,1-1.85,1.69Q156.38,351.58,147.37,360a209.13,209.13,0,0,0-47.7,66Z"/><path class="cls-1" d="M346.8,406.38a209.89,209.89,0,0,0-15-38.06q-5.58-11-17.23-27.61a7.66,7.66,0,0,1-1.17-2.23,6.43,6.43,0,0,1,.67-5.14,6.64,6.64,0,0,1,4.09-3.24c2.76-.79,4.89-.29,6.39,1.48q8.73,10.1,18.92,29.8a223.95,223.95,0,0,1,24.17,85q1.69,22.11-.42,35.29c-.34,2.3-1.89,3.85-4.65,4.63q-6.6,1.88-8.46-4.63a7.93,7.93,0,0,1-.18-2.51q1.17-20.26.13-32.54A210,210,0,0,0,346.8,406.38Z"/><path class="cls-1" d="M227.67,106.79q-4,0-5.54-2.64L173.31,23.76a3.71,3.71,0,0,1-.56-1.89q0-4.39,6.2-4.4,3.88,0,5.45,2.64l48.82,80.38a3.77,3.77,0,0,1,.56,1.9A3.72,3.72,0,0,1,232,105.5,7.18,7.18,0,0,1,227.67,106.79Z"/><path class="cls-1" d="M258.18,102.32a3.41,3.41,0,0,1,.56-1.83l48.82-80.38q1.56-2.64,5.45-2.64a7.42,7.42,0,0,1,4.35,1.29,3.52,3.52,0,0,1,1.29,5l-48.82,80.39q-1.56,2.64-5.45,2.64a7.32,7.32,0,0,1-4.35-1.32A3.82,3.82,0,0,1,258.18,102.32Z"/><polygon class="cls-1" points="303.8 216.88 303.8 185.94 277 170.47 250.2 185.94 250.2 216.88 277 232.35 303.8 216.88"/></svg>