<svg id="logo" xmlns="http://www.w3.org/2000/svg" viewBox="0 0 494.02 494.02"><defs><style>.cls-1{fill:#fff;}.cls-2{fill:#464952;stroke:#464952;stroke-miterlimit:10;stroke-width:5px;}</style></defs><polygon class="cls-1" points="242.2 216.88 242.2 185.94 215.4 170.47 188.6 185.94 188.6 216.88 215.4 232.35 242.2 216.88"/><polygon class="cls-1" points="278.9 162.45 278.9 124.01 245.61 104.79 212.32 124.01 212.32 162.45 245.61 181.67 278.9 162.45"/><polygon class="cls-1" points="182.13 259.3 182.13 332.61 245.61 369.26 309.09 332.61 309.09 259.3 245.61 222.65 182.13 259.3"/><path class="cls-2" d="M250.12,250.83a17.86,17.86,0,0,1,18.05,18,17.15,17.15,0,0,1-5.33,12.78l-11.28,11a4.37,4.37,0,0,0-1.44,3.28v13.54c0,3-1.5,4.51-4.51,4.51s-4.51-1.51-4.51-4.51V296a13.25,13.25,0,0,1,4.3-9.84l11.22-10.94a8.42,8.42,0,0,0,2.52-6.29,8.86,8.86,0,0,0-9-9,57.43,57.43,0,0,0-9.16.75A75.11,75.11,0,0,0,229.27,264a5.12,5.12,0,0,1-1.71.34,4.69,4.69,0,0,1-4.51-4.51,4.2,4.2,0,0,1,2.73-4.1A59,59,0,0,1,250.12,250.83Zm-9,81.22q0-4.51,4.51-4.52t4.51,4.52v4.51q0,4.51-4.51,4.51t-4.51-4.51Z"/><path class="cls-1" d="M173.65,195.61l2.39-5.4q2.4-5.39,7.79-3t3,7.79l-4.78,10.79q-2.4,5.4-7.79,3L55.53,156.15q-5.4-2.39-3-7.78l4.78-10.8q2.4-5.4,7.79-3t3,7.79l-2.4,5.39Z"/><path class="cls-1" d="M405.84,109l-4.09-4.25q-4.1-4.26.16-8.35t8.35.16l8.18,8.51q4.1,4.24-.15,8.34L324.72,203.5q-4.25,4.09-8.34-.16l-8.19-8.51q-4.1-4.25.16-8.34t8.34.16l4.1,4.25Z"/><path class="cls-1" d="M73,320.67Q69,324,72,330.11t-1,9.43q-5.19,4.24-9.43-.94a19.93,19.93,0,0,1,2.83-28.3l36.32-29.72q4-3.27,1-9.43t.94-9.43q4-3.29,9.43.94t9.44.94l36.32-29.71a19.33,19.33,0,0,1,14.77-4.48,19.53,19.53,0,0,1,13.53,7.31q4.25,5.19-.95,9.44-4,3.27-9.43-.95t-9.43-.94L130.06,274q-8.58,7-14.63,3.3c.82,2,.42,4.47-1.18,7.53a20.64,20.64,0,0,1-5,6.15Z"/><path class="cls-1" d="M394.17,260.28a20.88,20.88,0,0,1-6.75-4.09c-2.55-2.33-3.79-4.55-3.69-6.67q-4.43,5.56-14.87,1.9l-44.29-15.5q-4.89-1.71-8.54,4.12t-8.55,4.11c-4.21-1.48-5.59-4.32-4.11-8.54A20,20,0,0,1,329,223.27l44.29,15.5q4.89,1.71,8.54-4.12t8.54-4.11q4.89,1.71,4.12,8.54t4.11,8.54l44.29,15.5a19.95,19.95,0,0,1,12.34,25.62q-2.21,6.33-8.54,4.12-4.89-1.71-4.11-8.54t-4.12-8.54Z"/><path class="cls-1" d="M137.29,446.63q-1,12.27.12,32.54a7.38,7.38,0,0,1-.18,2.51q-1.84,6.51-8.45,4.63c-2.76-.78-4.32-2.33-4.66-4.63q-2.12-13.17-.41-35.29a223.47,223.47,0,0,1,24.17-85q10.19-19.71,18.92-29.8c1.5-1.77,3.63-2.27,6.39-1.48a6.66,6.66,0,0,1,4.09,3.24,6.43,6.43,0,0,1,.67,5.14,7.66,7.66,0,0,1-1.17,2.23q-11.65,16.62-17.23,27.61a209,209,0,0,0-22.26,78.31Z"/><path class="cls-1" d="M371.09,390.64A209,209,0,0,0,344,360q-9-8.43-25.64-20.06a7.46,7.46,0,0,1-1.86-1.69,6.45,6.45,0,0,1-1.13-5.06,6.67,6.67,0,0,1,2.74-4.45q3.48-2.52,6.51-.79,11.65,6.51,28,21.53a224.09,224.09,0,0,1,51.79,71.62q9.15,20.2,11.68,33.31.69,3.4-2.79,5.94-5.56,4-9.53-1.46a7.51,7.51,0,0,1-1-2.3q-5.83-19.44-11-30.62A209,209,0,0,0,371.09,390.64Z"/><path class="cls-1" d="M227.3,106.79q-4,0-5.55-2.64L172.94,23.76a3.71,3.71,0,0,1-.56-1.89q0-4.39,6.2-4.4c2.59,0,4.4.88,5.45,2.64l48.82,80.38a3.58,3.58,0,0,1-1.25,5A7.18,7.18,0,0,1,227.3,106.79Z"/><path class="cls-1" d="M257.81,102.32a3.41,3.41,0,0,1,.56-1.83l48.82-80.38q1.56-2.64,5.45-2.64A7.42,7.42,0,0,1,317,18.76a3.52,3.52,0,0,1,1.29,5l-48.82,80.39c-1,1.76-2.86,2.64-5.45,2.64a7.28,7.28,0,0,1-4.35-1.32A3.82,3.82,0,0,1,257.81,102.32Z"/><polygon class="cls-1" points="303.43 216.88 303.43 185.94 276.63 170.47 249.83 185.94 249.83 216.88 276.63 232.35 303.43 216.88"/></svg>